<svg height='300px' width='300px'  fill="#000000" xmlns:dc="http://purl.org/dc/elements/1.1/" xmlns:cc="http://creativecommons.org/ns#" xmlns:rdf="http://www.w3.org/1999/02/22-rdf-syntax-ns#" xmlns:svg="http://www.w3.org/2000/svg" xmlns="http://www.w3.org/2000/svg" xmlns:sodipodi="http://sodipodi.sourceforge.net/DTD/sodipodi-0.dtd" xmlns:inkscape="http://www.inkscape.org/namespaces/inkscape" version="1.1" x="0px" y="0px" viewBox="0 0 100 100"><g transform="translate(0,-952.36218)"><path style="text-indent:0;text-transform:none;direction:ltr;block-progression:tb;baseline-shift:baseline;color:#000000;enable-background:accumulate;" d="m 49.820023,969.38506 c -0.161015,0.0354 -0.312945,0.11125 -0.437898,0.21868 L 7.3439728,1005.5913 c -0.6520976,0.5198 -0.1770308,1.8076 0.6568461,1.7806 l 11.0099931,0 0,26.9906 c 1.8e-5,0.5234 0.476826,0.9996 1.000907,0.9997 l 60.054504,0 c 0.524082,-10e-5 1.00089,-0.4763 1.000908,-0.9997 l 0,-26.9906 11.009992,0 c 0.833877,0.027 1.308945,-1.2608 0.656847,-1.7806 l -19.674106,-16.713 0,-13.49532 c -5.5e-5,-0.5234 -0.47685,-0.9996 -1.000908,-0.99965 l -11.009993,0 c -0.524058,5e-5 -1.000852,0.47625 -1.000907,0.99965 l 0,3.56126 -9.289682,-9.27802 c -0.237055,-0.24515 -0.605334,-0.35549 -0.938351,-0.28116 z m 0.156391,2.34294 10.353146,10.34016 c 0.548681,0.56627 1.714014,0.10072 1.720312,-0.68726 l 0,-4.99826 9.008175,0 0,12.99549 c 0.0013,0.28337 0.129984,0.56376 0.344062,0.74974 l 17.953795,15.24473 -9.289681,0 c -0.524082,10e-5 -1.000891,0.4763 -1.000909,0.9997 l 0,26.9906 -58.052686,0 0,-26.9906 c -1.8e-5,-0.5234 -0.476827,-0.9996 -1.000909,-0.9997 l -9.320959,0 26.805578,-22.9608 7.350421,11.90211 -7.631927,10.46509 c -0.257625,0.3531 -0.244123,0.879 0.03128,1.2184 l 15.013626,17.9937 c 0.297421,0.3991 0.914803,0.5141 1.336326,0.2491 0.421522,-0.2651 0.584473,-0.8708 0.352706,-1.3112 -2.619214,-5.4592 -5.177674,-10.9523 -7.757039,-16.4318 l 8.664113,-11.52726 c 0.20292,-0.27304 0.251991,-0.65287 0.125113,-0.96841 l -7.913432,-19.7744 z m -4.535366,3.87365 7.444257,18.58731 -8.664114,11.55854 c -0.215363,0.292 -0.252942,0.7049 -0.09384,1.0309 l 4.66048,9.9028 -9.477351,-11.3711 7.53809,-10.3714 c 0.220459,-0.31678 0.233269,-0.76452 0.03128,-1.09337 l -7.850875,-12.74558 z" fill="#000000" fill-opacity="1" fill-rule="nonzero" stroke="none" marker="none" visibility="visible" display="inline" overflow="visible"></path></g></svg>